<svg xmlns="http://www.w3.org/2000/svg" width="42" height="42" viewBox="0 0 42 42"><g fill="none" fill-rule="evenodd" transform="translate(1 1)"><path stroke="#FFF" stroke-dasharray="41 12" d="M20,30 C25.5228475,30 30,25.5228475 30,20 C30,14.4771525 25.5228475,10 20,10 C14.4771525,10 10,14.4771525 10,20 C10,25.5228475 14.4771525,30 20,30 Z" transform="matrix(-1 0 0 1 40 0)"/><circle cx="20" cy="20" r="20" stroke="#FFF" opacity=".2" transform="matrix(-1 0 0 1 40 0)"/><path fill="#FFF" d="M33.4300003,20.2657684 C33.4300003,20.3226485 33.3981592,20.3795285 33.3503976,20.4174485 L30.2936527,22.65473 C30.21405,22.7116101 30.1105665,22.7242501 30.0150432,22.69265 C29.9274802,22.66105 29.863798,22.59153 29.863798,22.5093699 L29.863798,21.093689 L17.2547287,21.093689 C17.1114438,21.093689 17,21.0052089 17,20.8914488 L17,19.678008 C17,19.5642479 17.1114438,19.4757679 17.2547287,19.4757679 L29.863798,19.4757679 L29.863798,18.0600869 C29.863798,17.9779269 29.9195199,17.9084068 30.0150432,17.8768068 C30.1105665,17.8452068 30.21405,17.8578468 30.2936527,17.9084068 L33.3503976,20.1204083 C33.3981592,20.1583283 33.4300003,20.2088884 33.4300003,20.2657684 Z"/></g></svg>
